<?xml version="1.0" encoding="utf-8"?>
<!-- Generator: Adobe Illustrator 27.8.0, SVG Export Plug-In . SVG Version: 6.00 Build 0)  -->
<svg version="1.1" id="Layer_1" xmlns="http://www.w3.org/2000/svg" xmlns:xlink="http://www.w3.org/1999/xlink" x="0px" y="0px"
	 viewBox="0 0 157.3 109.3" style="enable-background:new 0 0 157.3 109.3;" xml:space="preserve">
<style type="text/css">
	.st0{fill:#FF00F5;}
	.st1{fill:#FFFFFF;}
	.st2{fill:none;stroke:#FFFFFF;stroke-width:1.4286;stroke-miterlimit:10;}
</style>
<path class="st0" d="M0,60.1c24.1,0,46,13.7,56.5,35.3h0.1c4,8.1,12.3,13.8,22,13.8s18-5.7,22-13.8h0.1
	c10.5-21.6,32.5-35.3,56.5-35.3H0z"/>
<path class="st1" d="M77.8,76.6c0-2.3,1.9-4.2,4.2-4.2c2.3,0,4.2,1.9,4.2,4.2v16.8c0,2.3-1.9,4.2-4.2,4.2c-2.3,0-4.2-1.9-4.2-4.2
	C77.8,93.4,77.8,76.6,77.8,76.6z M69,71v28h2V86h4.8v7.4c0,3.4,2.8,6.2,6.2,6.2s6.2-2.8,6.2-6.2V76.6c0-3.4-2.8-6.2-6.2-6.2
	s-6.2,2.8-6.2,6.2V84H71V71C71,71,69,71,69,71z"/>
<circle class="st2" cx="78.6" cy="84.3" r="20"/>
<rect class="st0" width="157.3" height="60.1"/>
</svg>
