<?xml version="1.0" encoding="utf-8"?>
<!-- Generator: Adobe Illustrator 27.8.0, SVG Export Plug-In . SVG Version: 6.00 Build 0)  -->
<svg version="1.1" id="Layer_1" xmlns="http://www.w3.org/2000/svg" xmlns:xlink="http://www.w3.org/1999/xlink" x="0px" y="0px"
	 viewBox="0 0 41.4 41.4" style="enable-background:new 0 0 41.4 41.4;" xml:space="preserve">
<style type="text/css">
	.st0{fill:#FF00F5;}
	.st1{fill:none;stroke:#FF00F5;stroke-width:1.4286;stroke-miterlimit:10;}
</style>
<path class="st0" d="M19.9,12.3c0-2.3,1.9-4.2,4.2-4.2c2.3,0,4.2,1.9,4.2,4.2v16.8c0,2.3-1.9,4.2-4.2,4.2c-2.3,0-4.2-1.9-4.2-4.2
	V12.3z M11.1,6.7v28h2v-13h4.8v7.4c0,3.4,2.8,6.2,6.2,6.2s6.2-2.8,6.2-6.2V12.3c0-3.4-2.8-6.2-6.2-6.2s-6.2,2.8-6.2,6.2v7.4h-4.8
	v-13H11.1z"/>
<circle class="st1" cx="20.7" cy="20.7" r="20"/>
</svg>
